<?xml version="1.0" encoding="UTF-8"?>
<svg xmlns="http://www.w3.org/2000/svg" xmlns:xlink="http://www.w3.org/1999/xlink" id="Layer_1" version="1.1" viewBox="0 0 689.28 142.14">
  <defs>
    <style>
      .st0 {
        fill: none;
      }

      .st1 {
        fill: #f39200;
      }

      .st2 {
        clip-path: url(#clippath-1);
      }

      .st3 {
        fill: #fff;
      }

      .st4 {
        fill: #f6931e;
      }

      .st5 {
        clip-path: url(#clippath);
      }
    </style>
    <clipPath id="clippath">
      <rect class="st0" y="760.98" width="111.97" height="80.91"></rect>
    </clipPath>
    <clipPath id="clippath-1">
      <rect class="st0" y="760.98" width="111.97" height="80.91"></rect>
    </clipPath>
  </defs>
  <g class="st5">
    <path class="st1" d="M69.59,781.57s-3.58,2.84-6,5.66c0,0,1.52,3.49,4.76,4.11,0,0,1.28-4.08,3.1-5.52,0,0-.33-2.87-1.86-4.25"></path>
    <path class="st1" d="M78.05,774.02s.07-1.07,1.16-.89c0,0,.28,1.71.95,2.43,0,0-2.19-.26-2.1-1.55M84.5,779.1c2.36-.89,3.25-2.78,3.25-2.78-1.89,1.04-4.56.23-4.56.23-1.58-1.2-1.85-4.17-1.85-4.17,1.31-.62,1.66-2.63,1.66-2.63,0,0-1.04.35-1.73.39s-.94-.89-.94-.89c2.32-1.16-.39-3.4-.39-3.4l-1.43,2.43c-3.97-7.24-13.31-7.24-13.32-7.24h-26.98c-.89,0-1.62.73-1.62,1.62s.73,1.61,1.62,1.61h13.88c.89,0,1.62.73,1.62,1.62s-.73,1.62-1.62,1.62h-25.9c-.89,0-1.62.73-1.62,1.62s.73,1.62,1.62,1.62h27.12c.89,0,1.62.73,1.62,1.62s-.73,1.62-1.62,1.62h-21.95c-.89,0-1.62.73-1.62,1.61s.73,1.62,1.62,1.62h15.56c.89,0,1.62.73,1.62,1.62s-.73,1.62-1.62,1.62h-18.91c-.89,0-1.62.73-1.62,1.62s.73,1.62,1.62,1.62h21.64c.89,0,1.62.73,1.62,1.62s-.73,1.62-1.62,1.62h-17.23c-.89,0-1.62.73-1.62,1.62s.73,1.62,1.62,1.62h29.51s-.77-2.33-.77-2.33c0,0-.39-.43,3.09-3.9,3.48-3.48,8.58-6.45,8.58-6.45,0,0-.23,2.01-.15,2.74.08.73.73,1.82,1.93,3.79,1.2,1.97,3.75,3.05,3.75,3.05h1.58l-1.28-3.17s2.2.77,2.59.93c.39.15,1.39,1.7,1.39,1.7,0,0,1.43-.19,1.59-.23.15-.04,1.66-3.02,1.66-3.02,5.22-1.43,6.34-7.42,6.34-7.42-3.21,4.37-7.73,3.28-7.73,3.28"></path>
    <path class="st1" d="M24.52,777.19h2.23c.89,0,1.61-.73,1.61-1.62s-.73-1.62-1.61-1.62h-2.23c-.89,0-1.62.73-1.62,1.62s.73,1.62,1.62,1.62"></path>
    <path class="st1" d="M19.39,770.73h2.23c.89,0,1.61-.73,1.61-1.62s-.73-1.62-1.61-1.62h-2.23c-.89,0-1.62.73-1.62,1.62s.73,1.62,1.62,1.62"></path>
    <path class="st1" d="M31.37,764.21h2.23c.89,0,1.61-.73,1.61-1.62s-.73-1.62-1.61-1.62h-2.23c-.89,0-1.62.73-1.62,1.62s.73,1.62,1.62,1.62"></path>
    <path class="st1" d="M21.55,783.7h2.23c.89,0,1.61-.73,1.61-1.62s-.73-1.62-1.61-1.62h-2.23c-.89,0-1.62.73-1.62,1.62s.73,1.62,1.62,1.62"></path>
    <path class="st3" d="M7.86,813.16v7.18h3.34c2.84,0,4.13-1,4.13-3.63s-1.25-3.55-4.13-3.55h-3.34ZM.09,835.04v-27.81h12.15c7.39,0,11.06,3.05,11.06,9.1,0,3.67-1.63,6.35-4.84,7.97,2.3,3.63,4.26,7.22,5.8,10.73h-8.68c-1.42-3.38-3.01-6.39-4.72-8.98h-3.01v8.98H.09Z"></path>
  </g>
  <rect class="st3" x="27.02" y="807.24" width="7.77" height="27.81"></rect>
  <g class="st2">
    <path class="st3" d="M49.02,829.32c1.54,0,2.63-.42,3.26-1.25.63-.79.92-2.26.92-4.38v-5.05c0-4.22-1.04-5.64-4.17-5.64s-4.17,1.42-4.17,5.64v5.05c0,2.13.29,3.59.92,4.38.63.83,1.71,1.25,3.26,1.25M49.02,835.42c-4.17,0-7.22-.96-9.19-2.84-1.96-1.88-2.97-4.84-2.97-8.89v-5.05c0-8.14,3.8-11.77,12.15-11.77s12.15,3.63,12.15,11.77v5.05c0,4.05-.96,7.01-2.92,8.89-1.96,1.88-5.05,2.84-9.23,2.84"></path>
    <path class="st3" d="M70.97,813.16v7.18h3.34c2.84,0,4.13-1,4.13-3.63s-1.25-3.55-4.13-3.55h-3.34ZM63.21,835.04v-27.81h12.15c7.39,0,11.06,3.05,11.06,9.1,0,3.67-1.63,6.35-4.84,7.97,2.3,3.63,4.26,7.22,5.8,10.73h-8.68c-1.42-3.38-3.01-6.39-4.72-8.98h-3.01v8.98h-7.77Z"></path>
    <path class="st3" d="M102.7,835.04h-7.77v-9.85c-3.8-5.97-6.89-11.94-9.23-17.95h8.35c1.09,3.3,2.71,6.97,4.88,11.02,2.21-4.17,3.8-7.85,4.8-11.02h8.22c-2.13,5.51-5.22,11.52-9.27,18.03v9.77Z"></path>
    <path class="st1" d="M102.56,840.93h-.82v.91h.82v-.91ZM102.48,840.5l.13-2.33h-.93l.13,2.33h.67ZM98.89,839.49l1.43,2.35h.78v-3.67h-.77v2.34l-1.43-2.34h-.77v3.67h.77v-2.35ZM97.7,841.17h-1.64v-.83h1.53v-.67h-1.53v-.82h1.61v-.68h-2.43v3.67h2.45v-.67ZM92.81,839.97v-1.15h.59c.46,0,.65.15.65.57s-.19.58-.65.58h-.59ZM92.81,841.84v-1.22h.69c.9,0,1.39-.41,1.39-1.22s-.49-1.22-1.39-1.22h-1.51v3.67h.81ZM89.55,839.97v-1.15h.59c.46,0,.65.15.65.57s-.19.58-.65.58h-.59ZM89.55,841.84v-1.22h.69c.9,0,1.39-.41,1.39-1.22s-.48-1.22-1.39-1.22h-1.51v3.67h.82ZM86.17,841.04c-.11-.13-.17-.35-.17-.67v-.73c0-.62.2-.86.71-.86s.71.25.71.86v.73c0,.31-.06.53-.17.67-.11.13-.29.2-.54.2s-.43-.07-.54-.2M86.71,841.89c1.04,0,1.54-.48,1.54-1.52v-.73c0-1.03-.5-1.52-1.54-1.52s-1.54.48-1.54,1.52v.73c0,1.04.49,1.52,1.54,1.52M83.07,838.86v2.98h.81v-2.98h1.07v-.69h-2.94v.69h1.06ZM80.36,841.89c.99,0,1.51-.46,1.51-1.17,0-.59-.33-.94-1-1.04l-.38-.06c-.4-.06-.55-.18-.55-.41,0-.27.23-.4.7-.4.34,0,.7.06,1.08.19v-.71c-.41-.11-.8-.16-1.16-.16-.95,0-1.49.47-1.49,1.16,0,.59.33.93.99,1.03l.39.06c.41.06.55.18.55.42,0,.26-.23.42-.71.42-.38,0-.78-.07-1.19-.22v.73c.46.11.88.16,1.25.16M77.02,838.86v2.98h.81v-2.98h1.07v-.69h-2.95v.69h1.06ZM73.39,839.49l1.43,2.35h.78v-3.67h-.77v2.34l-1.43-2.34h-.77v3.67h.76v-2.35ZM70.06,841.04c-.11-.13-.17-.35-.17-.67v-.73c0-.62.2-.86.71-.86s.71.25.71.86v.73c0,.31-.06.53-.17.67-.11.13-.29.2-.54.2s-.43-.07-.54-.2M70.6,841.89c1.04,0,1.54-.48,1.54-1.52v-.73c0-1.03-.5-1.52-1.54-1.52s-1.54.48-1.54,1.52v.73c0,1.04.49,1.52,1.54,1.52M66.04,838.82c.45,0,.65.15.65.55s-.2.57-.65.57h-.62v-1.11h.61ZM65.43,841.84v-1.27h.57c.26.36.51.79.73,1.27h.91c-.26-.53-.53-1.01-.84-1.45.48-.19.72-.54.72-1.06,0-.78-.5-1.16-1.38-1.16h-1.53v3.67h.82ZM62.05,841.04c-.11-.13-.17-.35-.17-.67v-.73c0-.62.2-.86.71-.86s.71.25.71.86v.73c0,.31-.06.53-.17.67-.11.13-.29.2-.54.2s-.43-.07-.54-.2M62.59,841.89c1.04,0,1.54-.48,1.54-1.52v-.73c0-1.03-.5-1.52-1.54-1.52s-1.54.48-1.54,1.52v.73c0,1.04.49,1.52,1.54,1.52M58.58,841.04c-.11-.13-.17-.35-.17-.67v-.73c0-.62.2-.86.71-.86s.71.25.71.86v.73c0,.31-.06.53-.17.67-.11.13-.29.2-.54.2s-.43-.07-.54-.2M59.12,841.89c1.04,0,1.54-.48,1.54-1.52v-.73c0-1.03-.49-1.52-1.54-1.52s-1.54.48-1.54,1.52v.73c0,1.04.49,1.52,1.54,1.52M56.34,841.84c.48-1.2.86-2.42,1.13-3.67h-.84c-.22,1.11-.46,2.05-.74,2.85-.3-.83-.55-1.78-.75-2.85h-.86c.29,1.31.67,2.53,1.13,3.67h.93ZM51.48,841.89c.99,0,1.51-.46,1.51-1.17,0-.59-.33-.94-1-1.04l-.37-.06c-.4-.06-.55-.18-.55-.41,0-.27.23-.4.7-.4.34,0,.7.06,1.09.19v-.71c-.41-.11-.8-.16-1.16-.16-.95,0-1.49.47-1.49,1.16,0,.59.33.93.99,1.03l.39.06c.41.06.55.18.55.42,0,.26-.23.42-.71.42-.38,0-.78-.07-1.19-.22v.73c.46.11.88.16,1.25.16M48.33,841.89c.98,0,1.47-.44,1.47-1.33v-2.39h-.84v2.39c0,.48-.19.67-.63.67s-.63-.19-.63-.67v-2.39h-.84v2.39c0,.9.48,1.33,1.47,1.33M46.45,841.17h-1.64v-.83h1.53v-.67h-1.53v-.82h1.61v-.68h-2.43v3.67h2.45v-.67ZM41.2,839.49l1.43,2.35h.77v-3.67h-.77v2.34l-1.43-2.34h-.77v3.67h.77v-2.35ZM36.49,839.49l1.43,2.35h.78v-3.67h-.77v2.34l-1.43-2.34h-.77v3.67h.77v-2.35ZM35.3,841.17h-1.64v-.83h1.53v-.67h-1.53v-.82h1.61v-.68h-2.43v3.67h2.45v-.67ZM32.42,841.17h-1.64v-.83h1.53v-.67h-1.53v-.82h1.61v-.68h-2.43v3.67h2.45v-.67ZM26.03,839.49l1.43,2.35h.78v-3.67h-.77v2.34l-1.43-2.34h-.77v3.67h.76v-2.35ZM24.84,841.17h-1.64v-.83h1.53v-.67h-1.53v-.82h1.61v-.68h-2.43v3.67h2.45v-.67ZM20.54,840.26c.42,0,.61.14.61.48s-.2.49-.61.49h-.67v-.97h.67ZM20.5,838.79c.38,0,.56.15.56.46s-.19.46-.57.46h-.62v-.92h.63ZM20.61,841.84c.96,0,1.34-.35,1.34-1.06,0-.47-.23-.72-.67-.85.39-.12.58-.38.58-.8,0-.65-.38-.96-1.41-.96h-1.4v3.67h1.56ZM17.2,840.26c.42,0,.61.14.61.48s-.2.49-.61.49h-.67v-.97h.67ZM17.16,838.79c.38,0,.56.15.56.46s-.19.46-.57.46h-.62v-.92h.63ZM17.28,841.84c.96,0,1.34-.35,1.34-1.06,0-.47-.23-.72-.67-.85.39-.12.58-.38.58-.8,0-.65-.38-.96-1.41-.96h-1.4v3.67h1.56ZM15.3,841.17h-1.64v-.83h1.53v-.67h-1.53v-.82h1.61v-.68h-2.43v3.67h2.45v-.67ZM10.14,839.65v-1.48h-.81v3.67h.81v-1.49h1.31v1.49h.81v-3.67h-.81v1.48h-1.31ZM7.74,841.17h-1.64v-.83h1.53v-.67h-1.53v-.82h1.61v-.68h-2.43v3.67h2.45v-.67ZM4,841.84c.43-1.23.75-2.46.95-3.67h-.84c-.19,1.14-.38,2.07-.58,2.77-.18-.61-.4-1.54-.66-2.77h-.77c-.25,1.22-.46,2.15-.64,2.77-.21-.79-.41-1.71-.6-2.77H0c.2,1.21.52,2.43.95,3.67h.88c.27-.81.48-1.67.65-2.56.16.87.38,1.72.65,2.56h.88Z"></path>
  </g>
  <path class="st4" d="M189.28,76.64s-13.07,10.37-21.92,20.67c0,0,5.55,12.74,17.38,15,0,0,4.67-14.91,11.35-20.17,0,0-1.19-10.47-6.81-15.51"></path>
  <path class="st4" d="M220.16,49.07s.26-3.92,4.21-3.24c0,0,1,6.24,3.46,8.89,0,0-8-.94-7.67-5.65M243.72,67.57c5.05-1.84,9.26-5.45,11.86-10.16-6.92,3.81-16.66.85-16.66.85-5.79-4.38-6.77-15.25-6.77-15.25,4.8-2.26,6.07-9.6,6.07-9.6-2.05.68-4.16,1.16-6.31,1.42-2.5.14-3.43-3.25-3.43-3.25,8.47-4.23-1.41-12.42-1.41-12.42l-5.23,8.89C207.35,1.6,173.24,1.6,173.19,1.6h-98.53c-3.26,0-5.9,2.63-5.91,5.89,0,3.26,2.63,5.9,5.89,5.91h50.71c3.26,0,5.9,2.65,5.89,5.91,0,3.25-2.64,5.89-5.89,5.89H30.76c-3.26.13-5.8,2.89-5.66,6.15.13,3.07,2.59,5.54,5.66,5.66h99.06c3.26,0,5.9,2.64,5.9,5.9s-2.64,5.9-5.9,5.9H49.66c-3.26,0-5.9,2.63-5.91,5.89,0,3.26,2.63,5.9,5.89,5.91h56.85c3.26.13,5.8,2.89,5.66,6.15-.13,3.07-2.59,5.54-5.66,5.66H37.42c-3.26,0-5.9,2.63-5.91,5.89,0,3.26,2.63,5.9,5.89,5.91h79.02c3.26,0,5.9,2.65,5.89,5.91,0,3.25-2.64,5.89-5.89,5.89h-62.92c-3.26.13-5.8,2.89-5.66,6.15.13,3.07,2.59,5.54,5.66,5.66h107.77l-2.8-8.47s-1.42-1.55,11.29-14.25,31.33-23.54,31.33-23.54c0,0-.84,7.34-.56,10s2.68,6.63,7.06,13.83,13.69,11.17,13.69,11.17h5.79l-4.66-11.57s8,2.82,9.45,3.38,5.09,6.21,5.09,6.21c0,0,5.22-.7,5.78-.84s6.07-11,6.07-11c19.06-5.23,23.15-27.1,23.15-27.1-11.71,16-28.23,12-28.23,12"></path>
  <path class="st4" d="M24.62,60.64h8.16c3.26,0,5.9-2.65,5.89-5.91,0-3.25-2.64-5.89-5.89-5.89h-8.16c-3.26,0-5.9,2.63-5.91,5.89,0,3.26,2.63,5.9,5.89,5.91h.02"></path>
  <path class="st4" d="M5.91,37.04h8.15c3.26.13,6.01-2.4,6.15-5.66.13-3.26-2.4-6.01-5.66-6.15-.16,0-.32,0-.49,0H5.91c-3.26-.13-6.01,2.4-6.15,5.66-.13,3.26,2.4,6.01,5.66,6.15.16,0,.32,0,.49,0"></path>
  <path class="st4" d="M49.66,13.24h8.16c3.26,0,5.9-2.63,5.91-5.89,0-3.26-2.63-5.9-5.89-5.91h-8.18c-3.26,0-5.9,2.63-5.91,5.89,0,3.26,2.63,5.9,5.89,5.91h.02"></path>
  <path class="st4" d="M13.78,84.44h8.16c3.26-.13,5.8-2.89,5.66-6.15-.13-3.07-2.59-5.54-5.66-5.66h-8.16c-3.26.13-5.8,2.89-5.66,6.15.13,3.07,2.59,5.54,5.66,5.66"></path>
  <path class="st3" d="M302.77,51.72h-12.81v-27.54h12.81c11,0,15.85,3.52,15.85,13.61s-5,13.93-15.85,13.93M330.63,66.93c12.33-6.24,18.58-16.49,18.58-30.58,0-23.22-14.1-34.91-42.44-34.91h-46.6v60.32c3.6-2,6.71-4.77,9.1-8.12,1.02-1.53,3.08-1.94,4.6-.92,1.15.76,1.7,2.16,1.4,3.5-.14.78-3.1,15.77-15.05,24.6v27.27h29.79v-34.43h11.53c7.09,10.89,13.14,22.42,18.09,34.43h33.31c-6.39-14.25-13.83-28.01-22.26-41.16"></path>
  <path class="st3" d="M447.83,86.15c5.92,0,10.08-1.6,12.49-4.81,2.4-3,3.52-8.64,3.52-16.81v-19.37c0-16.18-4-21.63-16-21.63s-16,5.45-16,21.63v19.41c0,8.17,1.12,13.77,3.52,16.81,2.4,3.21,6.56,4.82,12.49,4.81M447.85,109.57c-16,0-27.7-3.69-35.23-10.9s-11.34-18.61-11.34-34.1v-19.41C401.28,13.93,415.85,0,447.88,0s46.6,13.93,46.6,45.16v19.41c0,15.53-3.69,26.9-11.21,34.1s-19.38,10.9-35.39,10.9"></path>
  <path class="st3" d="M532.05,24.18v27.54h12.8c10.9,0,15.86-3.85,15.86-13.93s-4.81-13.61-15.86-13.61h-12.8ZM502.28,108.09V1.44h46.6c28.34,0,42.43,11.69,42.43,34.91,0,14.09-6.24,24.34-18.57,30.58,8.42,13.15,15.86,26.91,22.26,41.16h-33.31c-4.95-12.01-11-23.54-18.09-34.43h-11.53v34.43h-29.79Z"></path>
  <path class="st3" d="M653.74,108.09h-29.79v-37.8c-14.02-21.74-25.87-44.8-35.38-68.85h32c4.16,12.67,10.41,26.76,18.74,42.27,8.48-16,14.57-30.1,18.41-42.27h31.56c-8.16,21.14-20.01,44.2-35.54,69.18v37.47Z"></path>
  <rect class="st3" x="363.44" y="1.44" width="29.78" height="106.65"></rect>
  <path class="st1" d="M653.58,138.22h-3.14v3.48h3.14v-3.48ZM653.29,136.57l.51-8.93h-3.57l.49,8.93h2.57ZM639.52,132.68l5.49,9.01h2.98v-14.06h-2.96v8.97l-5.49-8.97h-2.96v14.06h2.93v-9.01ZM634.96,139.13h-6.27v-3.19h5.87v-2.55h-5.87v-3.15h6.19v-2.6h-9.31v14.06h9.39v-2.57ZM616.19,134.54v-4.42h2.26c1.77,0,2.49.57,2.49,2.2s-.72,2.22-2.49,2.22h-2.26ZM616.19,141.7v-4.69h2.66c3.44,0,5.32-1.58,5.32-4.69s-1.86-4.69-5.32-4.69h-5.78v14.06h3.12ZM603.69,134.54v-4.42h2.26c1.78,0,2.5.57,2.5,2.2s-.72,2.22-2.5,2.22h-2.26ZM603.69,141.7v-4.69h2.66c3.44,0,5.32-1.58,5.32-4.69s-1.86-4.69-5.32-4.69h-5.79v14.06h3.12ZM590.72,138.62c-.43-.51-.64-1.35-.64-2.56v-2.79c0-2.37.78-3.29,2.71-3.29s2.7.95,2.7,3.29v2.79c0,1.2-.21,2.05-.64,2.56-.42.51-1.12.76-2.07.76s-1.65-.25-2.07-.76M592.79,141.89c3.99,0,5.89-1.86,5.89-5.83v-2.79c0-3.95-1.9-5.83-5.89-5.83s-5.91,1.86-5.91,5.83v2.79c0,3.97,1.88,5.83,5.91,5.83M578.84,130.28v11.42h3.12v-11.42h4.09v-2.64h-11.29v2.64h4.08ZM568.45,141.89c3.78,0,5.8-1.78,5.8-4.5,0-2.26-1.27-3.59-3.82-3.99l-1.44-.21c-1.54-.23-2.11-.67-2.11-1.58,0-1.04.89-1.54,2.68-1.54,1.29,0,2.68.23,4.16.72v-2.72c-1.58-.4-3.06-.61-4.45-.61-3.65,0-5.72,1.82-5.72,4.43,0,2.26,1.27,3.57,3.8,3.93l1.48.23c1.58.23,2.11.69,2.11,1.63,0,1.01-.89,1.63-2.73,1.63-1.46,0-2.98-.28-4.58-.82v2.79c1.75.42,3.35.63,4.81.63M555.65,130.28v11.42h3.12v-11.42h4.1v-2.64h-11.3v2.64h4.08ZM541.73,132.68l5.49,9.01h2.98v-14.06h-2.96v8.97l-5.49-8.97h-2.96v14.06h2.93v-9.01ZM528.96,138.62c-.43-.51-.64-1.35-.64-2.56v-2.79c0-2.37.78-3.29,2.71-3.29s2.7.95,2.7,3.29v2.79c0,1.2-.21,2.05-.63,2.56-.43.51-1.12.76-2.07.76s-1.65-.25-2.07-.76M531.03,141.89c3.99,0,5.89-1.86,5.89-5.83v-2.79c0-3.95-1.9-5.83-5.89-5.83s-5.91,1.86-5.91,5.83v2.79c0,3.97,1.88,5.83,5.91,5.83M513.57,130.13c1.71,0,2.5.59,2.5,2.09s-.78,2.17-2.47,2.17h-2.37v-4.27h2.34ZM511.23,141.7v-4.88h2.2c1.01,1.39,1.94,3.02,2.81,4.88h3.5c-.99-2.03-2.05-3.88-3.21-5.55,1.83-.72,2.74-2.07,2.74-4.05,0-2.98-1.92-4.46-5.3-4.46h-5.87v14.06h3.12ZM498.26,138.62c-.42-.51-.63-1.35-.63-2.56v-2.79c0-2.37.78-3.29,2.7-3.29s2.71.95,2.71,3.29v2.79c0,1.2-.21,2.05-.64,2.56-.42.51-1.12.76-2.07.76s-1.64-.25-2.07-.76M500.33,141.89c3.99,0,5.89-1.86,5.89-5.83v-2.79c0-3.95-1.9-5.83-5.89-5.83s-5.91,1.86-5.91,5.83v2.79c0,3.97,1.88,5.83,5.91,5.83M484.96,138.62c-.42-.51-.63-1.35-.63-2.56v-2.79c0-2.37.78-3.29,2.7-3.29s2.7.95,2.7,3.29v2.79c0,1.2-.21,2.05-.63,2.56-.42.51-1.12.76-2.07.76s-1.65-.25-2.07-.76M487.03,141.89c3.99,0,5.89-1.86,5.89-5.83v-2.79c0-3.95-1.9-5.83-5.89-5.83s-5.91,1.86-5.91,5.83v2.79c0,3.97,1.88,5.83,5.91,5.83M476.36,141.7c1.86-4.58,3.31-9.27,4.35-14.06h-3.23c-.82,4.24-1.78,7.88-2.85,10.92-1.16-3.19-2.11-6.82-2.89-10.92h-3.29c1.1,5,2.55,9.69,4.35,14.06h3.57ZM457.72,141.89c3.78,0,5.8-1.78,5.8-4.5,0-2.26-1.27-3.59-3.82-3.99l-1.43-.21c-1.55-.23-2.12-.67-2.12-1.58,0-1.04.89-1.54,2.68-1.54,1.29,0,2.68.23,4.16.72v-2.72c-1.58-.4-3.06-.61-4.46-.61-3.65,0-5.72,1.82-5.72,4.43,0,2.26,1.27,3.57,3.8,3.93l1.48.23c1.59.23,2.12.69,2.12,1.63,0,1.01-.89,1.63-2.73,1.63-1.46,0-2.98-.28-4.58-.82v2.79c1.75.42,3.35.63,4.81.63M445.66,141.89c3.76,0,5.64-1.69,5.64-5.09v-9.16h-3.21v9.14c0,1.84-.74,2.57-2.43,2.57s-2.43-.74-2.43-2.57v-9.14h-3.21v9.16c0,3.44,1.84,5.09,5.64,5.09M438.42,139.13h-6.27v-3.19h5.87v-2.55h-5.87v-3.15h6.19v-2.6h-9.31v14.06h9.39v-2.57ZM418.32,132.68l5.49,9.01h2.97v-14.06h-2.95v8.97l-5.49-8.97h-2.96v14.06h2.93v-9.01ZM400.24,132.68l5.49,9.01h2.97v-14.06h-2.95v8.97l-5.49-8.97h-2.96v14.06h2.93v-9.01ZM395.68,139.13h-6.27v-3.19h5.87v-2.55h-5.87v-3.15h6.19v-2.6h-9.31v14.06h9.39v-2.57ZM384.66,139.13h-6.27v-3.19h5.87v-2.55h-5.87v-3.15h6.19v-2.6h-9.31v14.06h9.39v-2.57ZM360.13,132.68l5.49,9.01h2.98v-14.06h-2.95v8.97l-5.49-8.97h-2.95v14.06h2.93v-9.01ZM355.56,139.13h-6.27v-3.19h5.87v-2.55h-5.87v-3.15h6.18v-2.6h-9.31v14.06h9.39v-2.57ZM339.08,135.64c1.6,0,2.32.55,2.32,1.84s-.78,1.88-2.32,1.88h-2.56v-3.72h2.56ZM338.93,130c1.44,0,2.15.59,2.15,1.78s-.72,1.75-2.17,1.75h-2.39v-3.53h2.41ZM339.37,141.7c3.7,0,5.15-1.35,5.15-4.05,0-1.79-.86-2.77-2.57-3.25,1.5-.46,2.24-1.48,2.24-3.06,0-2.51-1.46-3.69-5.4-3.69h-5.38v14.06h5.97ZM326.3,135.64c1.61,0,2.32.55,2.32,1.84s-.78,1.88-2.32,1.88h-2.56v-3.72h2.56ZM326.15,130c1.44,0,2.15.59,2.15,1.78s-.72,1.75-2.17,1.75h-2.39v-3.53h2.41ZM326.6,141.7c3.7,0,5.15-1.35,5.15-4.05,0-1.79-.86-2.77-2.57-3.25,1.5-.46,2.24-1.48,2.24-3.06,0-2.51-1.45-3.69-5.4-3.69h-5.38v14.06h5.97ZM318.99,139.13h-6.27v-3.19h5.87v-2.55h-5.87v-3.15h6.18v-2.6h-9.31v14.06h9.39v-2.57ZM299.21,133.32v-5.68h-3.12v14.06h3.12v-5.72h5.03v5.72h3.12v-14.06h-3.12v5.68h-5.03ZM290.03,139.13h-6.27v-3.19h5.87v-2.55h-5.87v-3.15h6.19v-2.6h-9.31v14.06h9.39v-2.57ZM275.67,141.7c1.67-4.73,2.87-9.42,3.63-14.06h-3.23c-.72,4.39-1.46,7.94-2.24,10.62-.67-2.34-1.52-5.89-2.53-10.62h-2.93c-.95,4.69-1.78,8.24-2.47,10.62-.82-3.02-1.58-6.57-2.28-10.62h-3.27c.78,4.62,1.99,9.31,3.63,14.06h3.35c1.04-3.12,1.86-6.4,2.49-9.8.63,3.32,1.46,6.59,2.49,9.8h3.36Z"></path>
</svg>
