<?xml version="1.0" encoding="UTF-8"?>
<svg xmlns="http://www.w3.org/2000/svg" id="Layer_1" version="1.1" viewBox="0 0 689.28 142.15">
  <defs>
    <style>
      .st0 {
        fill: #f6921e;
      }

      .st1 {
        fill: #f39200;
      }

      .st2 {
        fill: #1e2e34;
      }
    </style>
  </defs>
  <rect class="st2" x="363.44" y="1.44" width="29.78" height="106.65"></rect>
  <path class="st2" d="M447.82,86.15c5.92,0,10.08-1.6,12.49-4.8,2.4-3,3.52-8.65,3.52-16.82v-19.37c0-16.17-4-21.62-16-21.62s-16,5.45-16,21.62v19.37c0,8.17,1.12,13.78,3.52,16.82,2.4,3.2,6.56,4.8,12.49,4.8M447.84,109.53c-16,0-27.7-3.68-35.23-10.89s-11.37-18.58-11.37-34.11v-19.37C401.24,13.93,415.81,0,447.84,0s46.6,13.93,46.6,45.16v19.37c0,15.53-3.69,26.91-11.21,34.11s-19.38,10.89-35.39,10.89"></path>
  <path class="st2" d="M532.04,24.18v27.54h12.81c10.89,0,15.85-3.84,15.85-13.92s-4.8-13.62-15.85-13.62h-12.81ZM502.25,108.09V1.44h46.6c28.34,0,42.44,11.69,42.44,34.91,0,14.09-6.25,24.34-18.58,30.59,8.42,13.15,15.86,26.91,22.26,41.15h-33.31c-4.95-12.01-11.01-23.54-18.09-34.43h-11.53v34.43h-29.79Z"></path>
  <path class="st2" d="M653.73,108.09h-29.79v-37.79c-14.02-21.74-25.87-44.8-35.38-68.86h32c4.17,12.67,10.42,26.76,18.74,42.28,8.48-16,14.57-30.11,18.41-42.28h31.54c-8.16,21.14-20.01,44.2-35.54,69.18l.02,37.47Z"></path>
  <path class="st0" d="M189.25,76.64s-13.07,10.37-21.91,20.68c0,0,5.54,12.74,17.38,15,0,0,4.66-14.92,11.34-20.18,0,0-1.19-10.47-6.81-15.51"></path>
  <path class="st0" d="M220.15,49.07s.26-3.92,4.22-3.24c0,0,1,6.24,3.46,8.89,0,0-8-.93-7.68-5.65M243.71,67.61c5.05-1.85,9.26-5.45,11.86-10.16-6.92,3.81-16.66.84-16.66.84-5.78-4.37-6.77-15.24-6.77-15.24,4.8-2.26,6.07-9.6,6.07-9.6-2.05.69-4.16,1.16-6.31,1.41-2.5.14-3.43-3.25-3.43-3.25,8.47-4.23-1.41-12.42-1.41-12.42l-5.23,8.9C207.34,1.63,173.23,1.63,173.18,1.63h-98.53c-3.26,0-5.9,2.63-5.91,5.89,0,3.26,2.63,5.9,5.89,5.91h50.71c3.26.13,5.8,2.89,5.66,6.15-.13,3.07-2.59,5.54-5.66,5.66H30.76c-3.26,0-5.9,2.63-5.91,5.89,0,3.26,2.63,5.9,5.89,5.91h99.02c3.26,0,5.9,2.64,5.9,5.9s-2.64,5.9-5.9,5.9H49.65c-3.26.13-5.8,2.89-5.66,6.15.13,3.07,2.59,5.54,5.66,5.66h56.86c3.26,0,5.9,2.63,5.91,5.89,0,3.26-2.63,5.9-5.89,5.91H37.41c-3.26,0-5.9,2.65-5.89,5.91,0,3.25,2.64,5.89,5.89,5.89h79c3.26.13,5.8,2.89,5.66,6.15-.13,3.07-2.59,5.54-5.66,5.66h-62.9c-3.26,0-5.9,2.65-5.89,5.91,0,3.25,2.64,5.89,5.89,5.89h107.77l-2.8-8.46s-1.42-1.56,11.29-14.26,31.33-23.57,31.33-23.57c0,0-.84,7.34-.56,10s2.68,6.64,7.06,13.83,13.69,11.16,13.69,11.16h5.79l-4.68-11.61s8,2.82,9.45,3.39,5.09,6.21,5.09,6.21c0,0,5.22-.71,5.78-.85s6.07-11,6.07-11c19.06-5.22,23.15-27.1,23.15-27.1-11.71,16-28.23,12-28.23,12"></path>
  <path class="st0" d="M24.61,60.65h8.16c3.26-.13,5.8-2.89,5.66-6.15-.13-3.07-2.59-5.54-5.66-5.66h-8.16c-3.26.13-5.8,2.89-5.66,6.15.13,3.07,2.59,5.54,5.66,5.66"></path>
  <path class="st0" d="M5.9,37.04h8.16c3.26,0,5.9-2.63,5.91-5.89,0-3.26-2.63-5.9-5.89-5.91H5.9C2.64,25.24,0,27.89,0,31.15c0,3.25,2.64,5.89,5.89,5.89"></path>
  <path class="st0" d="M49.65,13.25h8.16c3.26-.13,5.8-2.89,5.66-6.15-.13-3.07-2.59-5.54-5.66-5.66h-8.16c-3.26.13-5.8,2.89-5.66,6.15.13,3.07,2.59,5.54,5.66,5.66"></path>
  <path class="st0" d="M13.77,84.44h8.16c3.26,0,5.9-2.63,5.91-5.89,0-3.26-2.63-5.9-5.89-5.91h-8.18c-3.26,0-5.9,2.63-5.91,5.89,0,3.26,2.63,5.9,5.89,5.91h.02"></path>
  <path class="st2" d="M302.76,51.72h-12.81v-27.54h12.81c11,0,15.85,3.53,15.85,13.62s-5,13.92-15.85,13.92M330.62,66.95c12.33-6.24,18.58-16.48,18.58-30.58,0-23.22-14.1-34.9-42.44-34.9h-46.6v60.31c3.6-2,6.71-4.77,9.1-8.12,1.04-1.51,3.12-1.9,4.63-.85,1.11.76,1.65,2.12,1.37,3.43-.14.79-3.1,15.78-15.05,24.61v27.26h29.79v-34.45h11.51c7.08,10.89,13.14,22.42,18.09,34.43h33.31c-6.41-14.24-13.86-27.99-22.29-41.14"></path>
  <path class="st1" d="M653.08,138.04h-3.14v3.48h3.14v-3.48ZM652.78,136.39l.51-8.93h-3.57l.49,8.93h2.57ZM639.01,132.51l5.49,9.01h2.98v-14.06h-2.96v8.97l-5.49-8.97h-2.96v14.06h2.93v-9.01ZM634.45,138.95h-6.27v-3.19h5.87v-2.55h-5.87v-3.15h6.19v-2.6h-9.31v14.06h9.39v-2.57ZM615.68,134.37v-4.42h2.26c1.77,0,2.49.57,2.49,2.2s-.72,2.22-2.49,2.22h-2.26ZM615.68,141.52v-4.69h2.66c3.44,0,5.32-1.58,5.32-4.69s-1.86-4.69-5.32-4.69h-5.78v14.06h3.12ZM603.18,134.37v-4.42h2.26c1.78,0,2.5.57,2.5,2.2s-.72,2.22-2.5,2.22h-2.26ZM603.18,141.52v-4.69h2.66c3.44,0,5.32-1.58,5.32-4.69s-1.86-4.69-5.32-4.69h-5.79v14.06h3.12ZM590.22,138.45c-.43-.51-.64-1.35-.64-2.56v-2.79c0-2.37.78-3.29,2.71-3.29s2.7.95,2.7,3.29v2.79c0,1.2-.21,2.05-.64,2.56-.42.51-1.12.76-2.07.76s-1.65-.25-2.07-.76M592.29,141.72c3.99,0,5.89-1.86,5.89-5.83v-2.79c0-3.95-1.9-5.83-5.89-5.83s-5.91,1.86-5.91,5.83v2.79c0,3.97,1.88,5.83,5.91,5.83M578.33,130.1v11.42h3.12v-11.42h4.09v-2.64h-11.29v2.64h4.08ZM567.94,141.72c3.78,0,5.8-1.78,5.8-4.5,0-2.26-1.27-3.59-3.82-3.99l-1.44-.21c-1.54-.23-2.11-.67-2.11-1.58,0-1.04.89-1.54,2.68-1.54,1.29,0,2.68.23,4.16.72v-2.72c-1.58-.4-3.06-.61-4.45-.61-3.65,0-5.72,1.82-5.72,4.43,0,2.26,1.27,3.57,3.8,3.93l1.48.23c1.58.23,2.11.69,2.11,1.63,0,1.01-.89,1.63-2.73,1.63-1.46,0-2.98-.28-4.58-.82v2.79c1.75.42,3.35.63,4.81.63M555.15,130.1v11.42h3.12v-11.42h4.1v-2.64h-11.3v2.64h4.08ZM541.23,132.51l5.49,9.01h2.98v-14.06h-2.96v8.97l-5.49-8.97h-2.96v14.06h2.93v-9.01ZM528.46,138.45c-.43-.51-.64-1.35-.64-2.56v-2.79c0-2.37.78-3.29,2.71-3.29s2.7.95,2.7,3.29v2.79c0,1.2-.21,2.05-.63,2.56-.43.51-1.12.76-2.07.76s-1.65-.25-2.07-.76M530.53,141.72c3.99,0,5.89-1.86,5.89-5.83v-2.79c0-3.95-1.9-5.83-5.89-5.83s-5.91,1.86-5.91,5.83v2.79c0,3.97,1.88,5.83,5.91,5.83M513.06,129.95c1.71,0,2.5.59,2.5,2.09s-.78,2.17-2.47,2.17h-2.37v-4.27h2.34ZM510.72,141.52v-4.88h2.2c1.01,1.39,1.94,3.02,2.81,4.88h3.5c-.99-2.03-2.05-3.88-3.21-5.55,1.83-.72,2.74-2.07,2.74-4.05,0-2.98-1.92-4.46-5.3-4.46h-5.87v14.06h3.12ZM497.75,138.45c-.42-.51-.63-1.35-.63-2.56v-2.79c0-2.37.78-3.29,2.7-3.29s2.71.95,2.71,3.29v2.79c0,1.2-.21,2.05-.64,2.56-.42.51-1.12.76-2.07.76s-1.64-.25-2.07-.76M499.82,141.72c3.99,0,5.89-1.86,5.89-5.83v-2.79c0-3.95-1.9-5.83-5.89-5.83s-5.91,1.86-5.91,5.83v2.79c0,3.97,1.88,5.83,5.91,5.83M484.45,138.45c-.42-.51-.63-1.35-.63-2.56v-2.79c0-2.37.78-3.29,2.7-3.29s2.7.95,2.7,3.29v2.79c0,1.2-.21,2.05-.63,2.56-.42.51-1.12.76-2.07.76s-1.65-.25-2.07-.76M486.52,141.72c3.99,0,5.89-1.86,5.89-5.83v-2.79c0-3.95-1.9-5.83-5.89-5.83s-5.91,1.86-5.91,5.83v2.79c0,3.97,1.88,5.83,5.91,5.83M475.86,141.52c1.86-4.58,3.31-9.27,4.35-14.06h-3.23c-.82,4.24-1.78,7.88-2.85,10.92-1.16-3.19-2.11-6.82-2.89-10.92h-3.29c1.1,5,2.55,9.69,4.35,14.06h3.57ZM457.21,141.72c3.78,0,5.8-1.78,5.8-4.5,0-2.26-1.27-3.59-3.82-3.99l-1.43-.21c-1.55-.23-2.12-.67-2.12-1.58,0-1.04.89-1.54,2.68-1.54,1.29,0,2.68.23,4.16.72v-2.72c-1.58-.4-3.06-.61-4.46-.61-3.65,0-5.72,1.82-5.72,4.43,0,2.26,1.27,3.57,3.8,3.93l1.48.23c1.59.23,2.12.69,2.12,1.63,0,1.01-.89,1.63-2.73,1.63-1.46,0-2.98-.28-4.58-.82v2.79c1.75.42,3.35.63,4.81.63M445.16,141.72c3.76,0,5.64-1.69,5.64-5.09v-9.16h-3.21v9.14c0,1.84-.74,2.57-2.43,2.57s-2.43-.74-2.43-2.57v-9.14h-3.21v9.16c0,3.44,1.84,5.09,5.64,5.09M437.91,138.95h-6.27v-3.19h5.87v-2.55h-5.87v-3.15h6.19v-2.6h-9.31v14.06h9.39v-2.57ZM417.81,132.51l5.49,9.01h2.97v-14.06h-2.95v8.97l-5.49-8.97h-2.96v14.06h2.93v-9.01ZM399.74,132.51l5.49,9.01h2.97v-14.06h-2.95v8.97l-5.49-8.97h-2.96v14.06h2.93v-9.01ZM395.18,138.95h-6.27v-3.19h5.87v-2.55h-5.87v-3.15h6.19v-2.6h-9.31v14.06h9.39v-2.57ZM384.16,138.95h-6.27v-3.19h5.87v-2.55h-5.87v-3.15h6.19v-2.6h-9.31v14.06h9.39v-2.57ZM359.62,132.51l5.49,9.01h2.98v-14.06h-2.95v8.97l-5.49-8.97h-2.95v14.06h2.93v-9.01ZM355.06,138.95h-6.27v-3.19h5.87v-2.55h-5.87v-3.15h6.18v-2.6h-9.31v14.06h9.39v-2.57ZM338.57,135.46c1.6,0,2.32.55,2.32,1.84s-.78,1.88-2.32,1.88h-2.56v-3.72h2.56ZM338.42,129.83c1.44,0,2.15.59,2.15,1.78s-.72,1.75-2.17,1.75h-2.39v-3.53h2.41ZM338.87,141.52c3.7,0,5.15-1.35,5.15-4.05,0-1.79-.86-2.77-2.57-3.25,1.5-.46,2.24-1.48,2.24-3.06,0-2.51-1.46-3.69-5.4-3.69h-5.38v14.06h5.97ZM325.79,135.46c1.61,0,2.32.55,2.32,1.84s-.78,1.88-2.32,1.88h-2.56v-3.72h2.56ZM325.65,129.83c1.44,0,2.15.59,2.15,1.78s-.72,1.75-2.17,1.75h-2.39v-3.53h2.41ZM326.09,141.52c3.7,0,5.15-1.35,5.15-4.05,0-1.79-.86-2.77-2.57-3.25,1.5-.46,2.24-1.48,2.24-3.06,0-2.51-1.45-3.69-5.4-3.69h-5.38v14.06h5.97ZM318.49,138.95h-6.27v-3.19h5.87v-2.55h-5.87v-3.15h6.18v-2.6h-9.31v14.06h9.39v-2.57ZM298.7,133.14v-5.68h-3.12v14.06h3.12v-5.72h5.03v5.72h3.12v-14.06h-3.12v5.68h-5.03ZM289.52,138.95h-6.27v-3.19h5.87v-2.55h-5.87v-3.15h6.19v-2.6h-9.31v14.06h9.39v-2.57ZM275.16,141.52c1.67-4.73,2.87-9.42,3.63-14.06h-3.23c-.72,4.39-1.46,7.94-2.24,10.62-.67-2.34-1.52-5.89-2.53-10.62h-2.93c-.95,4.69-1.78,8.24-2.47,10.62-.82-3.02-1.58-6.57-2.28-10.62h-3.27c.78,4.62,1.99,9.31,3.63,14.06h3.35c1.04-3.12,1.86-6.4,2.49-9.8.63,3.32,1.46,6.59,2.49,9.8h3.36Z"></path>
</svg>
